<svg viewBox="0 0 24 24" fill="none" xmlns="http://www.w3.org/2000/svg">
    <path
        d="M19.3606 4.64931C18.385 3.67371 16.8057 3.67352 15.8299 4.64875C15.8297 4.64894 15.8295 4.64912 15.8293 4.64931L12.0011 8.46974L8.17063 4.63931C7.19484 3.66352 5.6151 3.66352 4.63931 4.63931C3.66352 5.6151 3.66352 7.19484 4.63931 8.17063L8.46865 12L4.63931 15.8293C3.66352 16.8051 3.66352 18.3848 4.63931 19.3606C5.6151 20.3364 7.19484 20.3364 8.17063 19.3606L12 15.5313L15.8293 19.3606C16.8051 20.3364 18.3848 20.3364 19.3606 19.3606C20.3364 18.3848 20.3364 16.8051 19.3606 15.8293L15.5313 12L19.3606 8.17063C20.3264 7.20484 20.3264 5.6151 19.3606 4.64931Z"
        fill="currentColor" stroke="currentColor" stroke-width="3" />
</svg>
