<svg viewBox="0 0 204 138" fill="none" xmlns="http://www.w3.org/2000/svg">
    <g>
        <path d="M64.7672 31.2401L94.8822 125.22L78.0876 129.358L42.058 127.179L43.8036 66.4909L64.7672 31.2401Z"
            fill="#2F2F2F" />
        <path
            d="M149.893 1.20855C152.13 2.88072 157.536 22.1023 170.636 48.4178C183.736 74.7334 200.547 109.562 200.547 109.562C200.547 109.562 198.582 112.383 173.703 121.318C148.825 130.253 128.268 134.172 128.268 134.172C128.268 134.172 72.851 48.1983 72.4103 46.2558C71.9697 44.2965 63.1233 8.45463 63.1233 8.45463C63.1233 8.45463 98.3903 6.00549 113.677 4.70491C128.963 3.40433 147.283 -0.750762 149.893 1.20855Z"
            fill="#F19F40" />
        <path
            d="M23.3654 126.993L4.7575 123.835C4.7575 123.835 21.9249 88.0433 31.3136 69.9872C40.7023 51.9311 56.9038 13.6063 58.429 10.7856C59.9543 7.96482 66.2925 6.64735 69.1226 11.6639C71.9528 16.6804 95.5771 68.3488 100.017 76.6083C105.017 85.8982 129.861 131.655 130.081 134.053C130.302 136.452 88.2559 132.483 88.2559 132.483L77.4098 100.644L64.3097 44.077L62.1235 44.5161L51.6502 90.6444L23.3654 126.993Z"
            fill="#EC5F32" />
        <path
            d="M76.0201 130.979C76.393 133.175 87.4764 135.084 93.7807 135.219C100.102 135.371 111.406 135.81 112.728 134.341C114.049 132.871 98.492 119.122 88.4932 101.117C78.5114 83.1113 72.6307 70.6798 71.1733 65.697C69.6989 60.7143 66.767 45.7999 65.5977 43.3001C64.4283 40.8003 62.0727 41.2563 61.344 43.5872C60.6152 45.935 52.9721 74.7673 50.3283 81.6418C47.6846 88.5163 36.8215 102.856 33.5846 107.4C30.3477 111.944 14.3496 124.037 14.0615 125.203C13.7734 126.368 23.9586 129.932 30.89 130.726C35.8555 131.283 47.4304 130.422 48.3116 128.952C49.1929 127.483 55.1752 88.5163 57.3783 75.4936C59.5814 62.4709 63.3946 45.0567 63.3946 45.0567C63.3946 45.0567 72.0545 86.9117 73.2408 98.0426C74.4102 109.174 75.4439 127.466 76.0201 130.979Z"
            fill="#9C2D1B" />
        <path
            d="M203.344 92.8065C203.344 92.8065 202.107 91.5228 199.768 91.3708C197.429 91.2356 195.362 92.6545 195.362 92.6545L193.853 114.308C193.853 114.308 195.65 115.879 197.853 115.879C200.056 115.879 202.124 114.731 202.124 114.731L203.344 92.8065Z"
            fill="#9C2D1B" />
        <path
            d="M140.199 114.578C140.199 114.578 138.284 112.974 135.352 112.974C132.42 112.974 130.217 114.443 130.217 114.443L130.064 136.401C130.064 136.401 132.42 137.719 134.183 137.719C135.945 137.719 138.741 136.84 138.741 136.84L140.199 114.578Z"
            fill="#9C2D1B" />
        <path
            d="M8.79083 104.934C8.79083 104.934 7.21474 103.11 4.41847 103.245C1.62219 103.38 0.0969621 104.343 0.0969621 104.343L1.41884 126.875C1.41884 126.875 2.45261 128.344 4.94384 128.344C7.43506 128.344 9.63818 127.179 9.63818 127.179L8.79083 104.934Z"
            fill="#9C2D1B" />
    </g>
</svg>
