<svg viewBox="0 0 192 263" fill="none" xmlns="http://www.w3.org/2000/svg">
    <g>
        <path
            d="M169.177 148.059L158.273 134.236L110.396 171.915V104.852H77.6847V194.969L33.8413 159.277L22.7096 172.918L77.6847 217.672V255.335H110.396V194.319L169.177 148.059Z"
            fill="#D68231" />
        <path opacity="0.2"
            d="M33.8413 159.277L22.7096 172.918L47.4323 193.044C52.8771 190.078 57.0917 185.457 59.2373 179.952L33.8413 159.277Z"
            fill="black" />
        <path opacity="0.2"
            d="M158.273 134.236L132.35 154.637C134.21 160.275 138.211 165.076 143.503 168.266L169.177 148.059L158.273 134.236Z"
            fill="black" />
        <path opacity="0.2"
            d="M77.6847 104.852V160.112C83.0451 160.854 88.5104 161.237 94.04 161.237C99.5706 161.237 105.035 160.854 110.396 160.112V104.852H77.6847Z"
            fill="black" />
        <path
            d="M94.041 147.49C142.562 147.49 181.895 114.473 181.895 73.7448C181.895 33.0167 142.562 0 94.041 0C45.5204 0 6.18665 33.0167 6.18665 73.7448C6.18665 114.473 45.5204 147.49 94.041 147.49Z"
            fill="#00AD68" />
        <path
            d="M163.724 166.099C178.952 166.099 191.297 154.928 191.297 141.147C191.297 127.367 178.952 116.196 163.724 116.196C148.496 116.196 136.151 127.367 136.151 141.147C136.151 154.928 148.496 166.099 163.724 166.099Z"
            fill="#7CDFA8" />
        <path
            d="M28.2763 191.05C43.5044 191.05 55.8492 179.879 55.8492 166.099C55.8492 152.318 43.5044 141.147 28.2763 141.147C13.0482 141.147 0.703369 152.318 0.703369 166.099C0.703369 179.879 13.0482 191.05 28.2763 191.05Z"
            fill="#218649" />
        <path
            d="M136.06 252.001C136.06 248.976 133.582 246.501 130.553 246.501H57.5268C54.4987 246.501 52.0209 248.976 52.0209 252.001V257.501C52.0209 260.525 54.4987 263 57.5268 263H130.554C133.583 263 136.061 260.525 136.061 257.501V252.001H136.06Z"
            fill="#218649" />
        <path
            d="M56.4391 95.8876C51.5189 90.9723 35.4793 86.0873 34.6601 86.9056C33.8413 87.7239 38.7327 103.744 43.6529 108.659C48.5741 113.573 55.4254 114.699 58.956 111.172C62.4865 107.646 61.3597 100.803 56.4391 95.8876Z"
            fill="#7CDFA8" />
        <path
            d="M126.656 102.738C131.577 97.8227 136.468 81.8023 135.649 80.9845C134.83 80.1663 118.79 85.0518 113.87 89.9666C108.949 94.8819 107.822 101.725 111.353 105.251C114.884 108.778 121.735 107.653 126.656 102.738Z"
            fill="#218649" />
        <path
            d="M83.9292 45.6978C83.9292 38.7473 76.0462 23.9644 74.8886 23.9644C73.7304 23.9644 65.8474 38.7468 65.8474 45.6978C65.8474 52.6488 69.8959 58.2833 74.8886 58.2833C79.8818 58.2833 83.9292 52.6493 83.9292 45.6978Z"
            fill="#218649" />
        <path
            d="M145.776 59.4924C150.697 54.5776 155.588 38.5572 154.77 37.7394C153.951 36.9217 137.911 41.8072 132.991 46.721C128.069 51.6363 126.943 58.48 130.474 62.0058C134.005 65.5327 140.856 64.4077 145.776 59.4924Z"
            fill="#7CDFA8" />
    </g>
</svg>
